<svg xmlns="http://www.w3.org/2000/svg" viewBox="0 0 255 15.34"><defs><style>.a{fill:#971c0a;}.b{fill:#1f2023;}</style></defs><g transform="translate(-375 -31.508)"><path class="a" d="M15.089.7H12.071V-11.371H3.018V.7H0V-14.389H15.089Zm17.6-10.562v1.509q0,4.527-4.527,4.527H20.621V.7H17.6V-14.389H28.166Q32.692-14.389,32.692-9.862Zm-3.018,0a1.334,1.334,0,0,0-1.509-1.509H20.621v4.527h7.544a1.334,1.334,0,0,0,1.509-1.509ZM50.3.7H47.278V-2.318H38.225V.7H35.207V-10.113q0-4.527,4.527-4.527h6.036q4.527,0,4.527,4.527ZM47.278-5.335v-4.778a1.334,1.334,0,0,0-1.509-1.509H39.734a1.334,1.334,0,0,0-1.509,1.509v4.778ZM66.944-6.869A4.072,4.072,0,0,0,67.9-9.887q-.025-4.5-4.527-4.5H52.811V.7H63.373Q67.9.7,67.9-3.826A4.218,4.218,0,0,0,66.944-6.869ZM63.373-8.353H55.828v-3.018h7.544a1.334,1.334,0,0,1,1.509,1.509A1.334,1.334,0,0,1,63.373-8.353Zm0,6.035H55.828V-5.335h7.544a1.334,1.334,0,0,1,1.509,1.509A1.334,1.334,0,0,1,63.373-2.318ZM85.5.7H81.655L76.827-5.335H73.432V.7H70.414V-14.389h3.018v6.035h3.395l4.828-6.035H85.5L79.467-6.844Zm16.849,0H99.334V-2.318H90.281V.7H87.263V-10.113q0-4.527,4.527-4.527h6.036q4.527,0,4.527,4.527ZM99.334-5.335v-4.778a1.334,1.334,0,0,0-1.509-1.509H91.79a1.334,1.334,0,0,0-1.509,1.509v4.778ZM133.535.7h-3.018V-2.318h-9.053V.7h-3.018V-10.113q0-4.527,4.527-4.527h6.036q4.527,0,4.527,4.527Zm-3.018-6.035v-4.778a1.334,1.334,0,0,0-1.509-1.509h-6.036a1.334,1.334,0,0,0-1.509,1.509v4.778Zm20.621-6.035H145.1V.7h-3.018V-11.371H136.05v-3.018h15.089Zm17.6-3.018H161.2q-3.194,0-4.527,4.527Q156.445-8.353,153.654.7h3.068l2.967-10.562q.4-1.509,1.509-1.509h4.527V.7h3.018ZM186.346.7h-3.018V-2.318h-9.053V.7h-3.018V-10.113q0-4.527,4.527-4.527h6.035q4.527,0,4.527,4.527Zm-3.018-6.035v-4.778a1.334,1.334,0,0,0-1.509-1.509h-6.035a1.334,1.334,0,0,0-1.509,1.509v4.778ZM203.95.7h-3.018V-5.335h-9.053V.7h-3.018V-14.389h3.018v6.035h9.053v-6.035h3.018Zm17.6-12.071h-6.036V.7H212.5V-11.371h-6.036v-3.018h15.089ZM239.157.7h-3.018V-2.318h-9.053V.7h-3.018V-10.113q0-4.527,4.527-4.527h6.035q4.527,0,4.527,4.527Zm-3.018-6.035v-4.778a1.334,1.334,0,0,0-1.509-1.509h-6.035a1.334,1.334,0,0,0-1.509,1.509v4.778Z" transform="translate(375 46.148)"/><path class="b" d="M5.03-3.794H3.018V.23H2.012V-3.794H0V-4.8H5.03ZM11.9.23H10.9V-2.922L8.886.23,6.874-2.922V.23H5.868V-4.8H6.874L8.886-1.648,10.9-4.8H11.9Z" transform="translate(618.097 36.308)"/></g></svg>